<!-- icon666.com - MILLIONS OF FREE VECTOR ICONS --><svg id="Capa_1" enable-background="new 0 0 512.599 512.599" viewBox="0 0 512.599 512.599" xmlns="http://www.w3.org/2000/svg"><g><path d="m457.21 512.599h-401.821c-30.59 0-55.389-24.799-55.389-55.389v-401.821c0-30.59 24.799-55.389 55.389-55.389h401.821c30.59 0 55.389 24.799 55.389 55.389v401.82c0 30.591-24.799 55.39-55.389 55.39z"></path><g fill="#fff"><path d="m448.215 221.153c-1.045-.825-11.003-8.362-32.018-8.362-5.556 0-11.058.495-16.559 1.43-4.071-27.837-27.067-41.425-28.112-42.03l-5.611-3.246-3.686 5.336c-4.621 7.207-8.032 15.129-10.013 23.436-3.741 15.899-1.485 30.808 6.602 43.571-9.737 5.446-25.416 6.767-28.552 6.877h-258.948c-6.767 0-12.268 5.501-12.268 12.213-.275 22.665 3.521 45.221 11.333 66.511 8.912 23.381 22.17 40.6 39.445 51.162 19.365 11.828 50.777 18.594 86.426 18.594 16.119.055 32.183-1.43 47.972-4.346 22.005-4.016 43.186-11.718 62.605-22.775 16.009-9.297 30.477-21.125 42.746-34.988 20.52-23.216 32.733-49.072 41.81-72.068h3.631c22.445 0 36.254-8.967 43.901-16.504 5.061-4.786 9.022-10.673 11.553-17.164l1.595-4.731z"></path><path d="m95.304 240.573h34.714c1.65 0 3.026-1.375 3.026-3.026v-30.917c0-1.65-1.32-3.026-3.026-3.026h-34.714c-1.65 0-3.026 1.375-3.026 3.026v30.917c0 1.651 1.376 3.026 3.026 3.026z"></path><path d="m143.111 240.573h34.714c1.65 0 3.026-1.375 3.026-3.026v-30.917c0-1.65-1.32-3.026-3.026-3.026h-34.714c-1.706 0-3.026 1.375-3.026 3.026v30.917c0 1.651 1.375 3.026 3.026 3.026"></path><path d="m191.688 240.573h34.713c1.65 0 3.026-1.375 3.026-3.026v-30.917c0-1.65-1.32-3.026-3.026-3.026h-34.713c-1.65 0-3.026 1.375-3.026 3.026v30.917c0 1.651 1.32 3.026 3.026 3.026z"></path><path d="m239.659 240.573h34.714c1.65 0 3.026-1.375 3.026-3.026v-30.917c0-1.705-1.375-3.026-3.026-3.026h-34.714c-1.65 0-3.026 1.375-3.026 3.026v30.917c0 1.651 1.321 3.026 3.026 3.026z"></path><path d="m143.111 196.122h34.714c1.65 0 3.026-1.375 3.026-3.026v-30.918c0-1.65-1.375-3.026-3.026-3.026h-34.714c-1.65 0-3.026 1.375-3.026 3.026v30.918c0 1.651 1.375 3.026 3.026 3.026"></path><path d="m191.688 196.122h34.713c1.65 0 3.026-1.375 3.026-3.026v-30.918c0-1.65-1.375-3.026-3.026-3.026h-34.713c-1.65 0-3.026 1.375-3.026 3.026v30.918c0 1.651 1.32 3.026 3.026 3.026"></path><path d="m239.659 196.122h34.714c1.705 0 3.026-1.375 3.026-3.026v-30.918c0-1.65-1.375-3.026-3.026-3.026h-34.714c-1.65 0-3.026 1.375-3.026 3.026v30.918c0 1.651 1.321 3.026 3.026 3.026"></path><path d="m239.659 151.616h34.714c1.65 0 3.026-1.375 3.026-3.026v-30.917c0-1.65-1.375-3.026-3.026-3.026h-34.714c-1.65 0-3.026 1.375-3.026 3.026v30.917c0 1.706 1.321 3.026 3.026 3.026"></path><path d="m288.016 240.573h34.714c1.65 0 3.026-1.375 3.026-3.026v-30.917c0-1.705-1.375-3.026-3.026-3.026h-34.714c-1.65 0-3.026 1.375-3.026 3.026v30.917c0 1.651 1.375 3.026 3.026 3.026"></path></g></g></svg>