<!-- icon666.com - MILLIONS OF FREE VECTOR ICONS --><svg id="Capa_1" enable-background="new 0 0 512 512" viewBox="0 0 512 512" xmlns="http://www.w3.org/2000/svg"><g><circle cx="256" cy="256" r="256"></circle><g fill="#fff"><path d="m152.726 288.64c0-10.66 40.449-16.642 59.285-18.095l1.802 1.04c-7.235 1.317-36.268 6.438-36.268 13.117 0 7.271 44.529 12.035 70.372 12.035 43.895 0 73.734-6.644 81.759-8.83l11.23 6.53c-7.691 3.767-40.698 13.63-92.989 13.63-58.111 0-95.191-11.366-95.191-19.427zm88.567 149.689c-23.002.199-51.081-1.702-74.702-5.669l-2.193 1.253c23.536 6.9 56.301 11.067 92.299 10.753 70.7-.612 128.019-18.145 129.151-39.245l-.812-.477c-4.743 5.783-35.322 32.438-143.743 33.385zm6.017-13.588c57.867-.506 122.607-11.828 122.443-30.863-.036-3.454-2.279-5.818-4.23-7.242l-.954.548c-5.348 14.741-50.554 25.636-117.351 26.213-43.098.377-102.803-9.948-102.909-21.877-.1-11.964 28.286-18.537 28.286-18.537l-2.008-1.147c-19.021 2.621-54.072 11.729-53.958 24.882.163 19.015 80.719 28.458 130.681 28.023zm130.362-131.009c-1.168 22.325-21.791 36.226-42.407 47.969l1.866 1.083c21.997-6.195 61.25-24.212 58.003-51.914-1.616-13.808-14.242-23.678-30.7-23.678-5.127 0-9.685.904-13.381 2.03l-.014.035-.783 1.966c14.726-2.886 28.178 7.867 27.416 22.509zm-169.977 66.334c-6.715 1.339-21.349 4.7-21.349 11.814 0 9.856 31.305 17.412 61.535 17.412 41.595 0 58.636-10.703 59.406-11.259l-17.298-10.005c-7.356 1.752-19.747 4.5-42.065 4.5-24.903 0-41.132-4.258-41.132-8.93 0-.99.62-2.172 1.773-3.026zm102.183-33.228c-9.564 2.706-31.113 7.121-61.927 7.121-30.237 0-54.94-5.17-55.019-11.266-.057-4.059 4.85-5.825 4.85-5.825l-.869-.505c-14.484 2.556-27.93 6.516-27.859 12.441.136 10.746 41.239 18.815 78.84 18.815 31.967 0 62.667-5.362 76.518-12.391z"></path><path d="m301.632 87.105c0 59.256-81.204 81.93-81.204 124.059 0 29.575 19.612 48.119 30.465 59.847l-.883.513c-13.701-8.574-49.742-30.109-49.742-65.679 0-49.941 93.274-73.805 93.274-130.526 0-6.979-1.032-12.334-1.759-15.218l.94-.541c2.955 3.71 8.909 12.996 8.909 27.545zm26.704 52.476-.976-.555c-17.668 5.918-72.074 27.395-72.074 67.431 0 22.638 22.112 35.186 22.112 56.415 0 7.577-4.28 14.677-7.755 18.921l1.745 1.011c9.208-5.982 25.501-18.935 25.501-35.656 0-14.164-19.598-31.184-19.598-49.386 0-28.684 37.814-51.187 51.045-58.181z"></path></g></g></svg>